<?xml version="1.0" encoding="iso-8859-1"?>
<!-- Uploaded to: SVG Repo, www.svgrepo.com, Generator: SVG Repo Mixer Tools -->
<svg height="800px" width="800px" version="1.1" id="Layer_1" xmlns="http://www.w3.org/2000/svg" xmlns:xlink="http://www.w3.org/1999/xlink" 
	 viewBox="0 0 496 496" xml:space="preserve">
<path style="fill:#858C8B;" d="M336.8,12.4c-34.4,0-64.8,20.8-88.8,40c-24-18.4-54.4-40-88.8-40C71.2,12.4,0,83.6,0,171.6
	c0,47.2,20.8,92,57.6,122.4L236,472.4l12,12l9.6-11.2l180-180c36.8-30.4,57.6-75.2,57.6-122.4C496,83.6,424.8,12.4,336.8,12.4z"/>
<!-- <path style="fill:#858C8B;" d="M336.8,12.4c-34.4,0-64.8,20.8-88.8,40c-24-18.4-54.4-40-88.8-40c-47.2,0-88.8,20-117.6,52
	l312.8,312.8l84-84C475.2,262.8,496,218,496,170.8C496,83.6,424.8,12.4,336.8,12.4z"/> -->
<path style="fill:#858C8B;" d="M248,51.6c-24-18.4-54.4-40-88.8-40C71.2,12.4,0,83.6,0,171.6c0,47.2,20.8,92,57.6,122.4L236,472.4
	l12,12"/>
<!-- <path style="fill:#C61867;" d="M248,271.6v-220c-24-18.4-54.4-40-88.8-40C112,12.4,70.4,32.4,41.6,64.4L248,271.6z"/> -->
</svg>